<?xml version="1.0" encoding="iso-8859-1"?>
<!-- Generator: Adobe Illustrator 18.0.0, SVG Export Plug-In . SVG Version: 6.00 Build 0)  -->
<!DOCTYPE svg PUBLIC "-//W3C//DTD SVG 1.1//EN" "http://www.w3.org/Graphics/SVG/1.1/DTD/svg11.dtd">
<svg version="1.1" id="Capa_1" xmlns="http://www.w3.org/2000/svg" xmlns:xlink="http://www.w3.org/1999/xlink" x="0px" y="0px"
	 viewBox="0 0 458 458" style="enable-background:new 0 0 458 458;" xml:space="preserve" fill="white">
<g>
	<path d="M449.23,198.839L390,159.352V15c0-8.284-6.716-15-15-15H83c-8.284,0-15,6.716-15,15v144.352L8.77,198.839
		c-4.173,2.782-6.68,7.466-6.68,12.481V443c0,8.284,6.716,15,15,15h423.82c8.284,0,15-6.716,15-15V211.32
		C455.91,206.305,453.403,201.621,449.23,198.839z M172.822,327.16L32.09,420.982V233.338L172.822,327.16z M264.122,337.16
		L400.382,428H57.617l136.26-90.84H264.122z M285.177,327.16l140.733-93.822v187.644L285.177,327.16z M418.376,214.325L390,233.242
		v-37.834L418.376,214.325z M360,30v223.242l-95.878,63.918h-70.245L98,253.242V30H360z M68,233.242l-28.376-18.917L68,195.408
		V233.242z"/>
	<path d="M137,115h184c5.522,0,10-4.477,10-10s-4.478-10-10-10H137c-5.522,0-10,4.477-10,10S131.478,115,137,115z"/>
	<path d="M137,163h184c5.522,0,10-4.477,10-10s-4.478-10-10-10H137c-5.522,0-10,4.477-10,10S131.478,163,137,163z"/>
	<path d="M137,211h184c5.522,0,10-4.477,10-10s-4.478-10-10-10H137c-5.522,0-10,4.477-10,10S131.478,211,137,211z"/>
</g>
<g>
</g>
<g>
</g>
<g>
</g>
<g>
</g>
<g>
</g>
<g>
</g>
<g>
</g>
<g>
</g>
<g>
</g>
<g>
</g>
<g>
</g>
<g>
</g>
<g>
</g>
<g>
</g>
<g>
</g>
</svg>
