<?xml version="1.0" encoding="iso-8859-1"?>
<!-- Generator: Adobe Illustrator 18.0.0, SVG Export Plug-In . SVG Version: 6.00 Build 0)  -->
<!DOCTYPE svg PUBLIC "-//W3C//DTD SVG 1.1//EN" "http://www.w3.org/Graphics/SVG/1.1/DTD/svg11.dtd">
<svg version="1.1" id="Capa_1" xmlns="http://www.w3.org/2000/svg" xmlns:xlink="http://www.w3.org/1999/xlink" x="0px" y="0px"
	 viewBox="0 0 296.427 296.427" style="enable-background:new 0 0 296.427 296.427;" xml:space="preserve" fill="white">
<g>
	<path d="M281.426,0c-8.284,0-15,6.716-15,15v251.427H15.001c-8.284,0-15,6.716-15,15c0,8.284,6.716,15,15,15h266.426
		c8.284,0,15-6.716,15-15V15C296.426,6.716,289.71,0,281.426,0z"/>
	<path d="M105.25,244.824h42c5.247,0,9.5-4.253,9.5-9.5V82.788c0-3.961-2.458-7.507-6.168-8.896
		c-3.71-1.389-7.892-0.331-10.494,2.655l-42,48.197c-1.507,1.73-2.338,3.947-2.338,6.241v104.339
		C95.75,240.571,100.003,244.824,105.25,244.824z"/>
	<path d="M189.146,244.824h42c5.247,0,9.5-4.253,9.5-9.5V59.788c0-3.961-2.458-7.507-6.168-8.896
		c-3.709-1.389-7.892-0.331-10.494,2.655l-42,48.196c-1.508,1.73-2.338,3.947-2.338,6.242v127.339
		C179.646,240.571,183.899,244.824,189.146,244.824z"/>
	<path d="M21.354,244.824h42c5.247,0,9.5-4.253,9.5-9.5V122.788c0-3.961-2.458-7.507-6.168-8.896
		c-3.71-1.389-7.892-0.331-10.495,2.655l-42,48.196c-1.507,1.73-2.338,3.947-2.338,6.242v64.339
		C11.854,240.571,16.107,244.824,21.354,244.824z"/>
</g>
<g>
</g>
<g>
</g>
<g>
</g>
<g>
</g>
<g>
</g>
<g>
</g>
<g>
</g>
<g>
</g>
<g>
</g>
<g>
</g>
<g>
</g>
<g>
</g>
<g>
</g>
<g>
</g>
<g>
</g>
</svg>
